<!-- <svg width="115" height="114" viewBox="0 0 115 114" fill="none" xmlns="http://www.w3.org/2000/svg">
<path d="M57.5 0.125C46.2512 0.125 35.255 3.46066 25.902 9.71017C16.5489 15.9597 9.25911 24.8423 4.95438 35.2349C0.649643 45.6274 -0.476672 57.0631 1.71786 68.0958C3.9124 79.1284 9.32922 89.2626 17.2833 97.2167C25.2374 105.171 35.3716 110.588 46.4043 112.782C57.4369 114.977 68.8726 113.85 79.2651 109.546C89.6577 105.241 98.5404 97.9511 104.79 88.5981C111.039 79.245 114.375 68.2488 114.375 57C114.359 41.9207 108.362 27.4636 97.6991 16.8009C87.0365 6.13821 72.5793 0.140924 57.5 0.125ZM82.4703 46.9703L51.8453 77.5953C51.439 78.0021 50.9565 78.3248 50.4254 78.545C49.8943 78.7651 49.325 78.8784 48.75 78.8784C48.1751 78.8784 47.6058 78.7651 47.0747 78.545C46.5435 78.3248 46.061 78.0021 45.6547 77.5953L32.5297 64.4703C31.7088 63.6494 31.2476 62.536 31.2476 61.375C31.2476 60.214 31.7088 59.1006 32.5297 58.2797C33.3506 57.4588 34.4641 56.9976 35.625 56.9976C36.786 56.9976 37.8994 57.4588 38.7203 58.2797L48.75 68.3148L76.2797 40.7797C76.6862 40.3732 77.1688 40.0508 77.6999 39.8308C78.2309 39.6108 78.8002 39.4976 79.375 39.4976C79.9499 39.4976 80.5191 39.6108 81.0502 39.8308C81.5813 40.0508 82.0639 40.3732 82.4703 40.7797C82.8768 41.1862 83.1993 41.6687 83.4192 42.1998C83.6392 42.7309 83.7525 43.3001 83.7525 43.875C83.7525 44.4499 83.6392 45.0191 83.4192 45.5502C83.1993 46.0813 82.8768 46.5638 82.4703 46.9703Z" fill="#2EAE4E"/>
</svg> -->

<svg width="140" height="140" viewBox="0 0 140 140" fill="none" xmlns="http://www.w3.org/2000/svg">
<circle cx="70" cy="70" r="70" fill="#56B571"/>
<path d="M46 70L64 88L94 52" stroke="white" stroke-width="6" stroke-linecap="round" stroke-linejoin="round"/>
</svg>
